REM MD5 9279e93e0db17f6bd9d550f505d628ae
FILE "Euro Demo 53 (France).bin" BINARY
  TRACK 01 MODE2/2352
    INDEX 01 00:00:00
  TRACK 02 AUDIO
    INDEX 00 41:53:38
    INDEX 01 41:55:38
  TRACK 03 AUDIO
    INDEX 00 46:36:56
    INDEX 01 46:38:56
  TRACK 04 AUDIO
    INDEX 00 50:18:64
    INDEX 01 50:20:64
REM LEADOUT 53:22:21
